<svg width="236" height="118" viewBox="0 0 236 118" fill="none" xmlns="http://www.w3.org/2000/svg">
<path d="M184.35 22.1661H126.48V20.9742H100.239V22.1661H42.1308C41.6168 22.1661 41.1077 22.2673 40.6328 22.4639C40.1579 22.6604 39.7264 22.9486 39.3629 23.3118C38.9994 23.675 38.711 24.1062 38.5143 24.5808C38.3176 25.0554 38.2163 25.564 38.2163 26.0777V105.261C38.2163 106.298 38.6288 107.293 39.3629 108.027C40.097 108.76 41.0926 109.172 42.1308 109.172H184.35C185.388 109.172 186.384 108.76 187.118 108.027C187.852 107.293 188.264 106.298 188.264 105.261V26.0777C188.264 25.564 188.163 25.0554 187.966 24.5808C187.77 24.1062 187.481 23.675 187.118 23.3118C186.754 22.9486 186.323 22.6604 185.848 22.4639C185.373 22.2673 184.864 22.1661 184.35 22.1661Z" fill="#3F3D56"/>
<path opacity="0.1" d="M183.016 29.0789H43.4644V107.742H183.016V29.0789Z" fill="black"/>
<path d="M113.121 26.9335C113.912 26.9335 114.552 26.2931 114.552 25.5032C114.552 24.7133 113.912 24.073 113.121 24.073C112.331 24.073 111.69 24.7133 111.69 25.5032C111.69 26.2931 112.331 26.9335 113.121 26.9335Z" fill="#00A68E"/>
<path d="M192.183 106.312H178.563V105.331C178.563 105.306 178.558 105.281 178.548 105.257C178.539 105.233 178.524 105.212 178.506 105.194C178.488 105.176 178.467 105.162 178.443 105.152C178.419 105.142 178.394 105.137 178.369 105.137H173.699C173.674 105.137 173.648 105.142 173.625 105.152C173.601 105.162 173.58 105.176 173.562 105.194C173.544 105.212 173.529 105.233 173.519 105.257C173.51 105.281 173.505 105.306 173.505 105.331V106.312H170.586V105.331C170.586 105.306 170.581 105.281 170.571 105.257C170.562 105.233 170.547 105.212 170.529 105.194C170.511 105.176 170.49 105.162 170.466 105.152C170.442 105.142 170.417 105.137 170.392 105.137H165.722C165.697 105.137 165.671 105.142 165.648 105.152C165.624 105.162 165.603 105.176 165.585 105.194C165.566 105.212 165.552 105.233 165.542 105.257C165.533 105.281 165.528 105.306 165.528 105.331V106.312H162.609V105.331C162.609 105.306 162.604 105.281 162.594 105.257C162.585 105.233 162.57 105.212 162.552 105.194C162.534 105.176 162.513 105.162 162.489 105.152C162.465 105.142 162.44 105.137 162.415 105.137H157.745C157.72 105.137 157.694 105.142 157.671 105.152C157.647 105.162 157.626 105.176 157.607 105.194C157.589 105.212 157.575 105.233 157.565 105.257C157.556 105.281 157.551 105.306 157.551 105.331V106.312H154.632V105.331C154.632 105.306 154.627 105.281 154.617 105.257C154.607 105.233 154.593 105.212 154.575 105.194C154.557 105.176 154.536 105.162 154.512 105.152C154.488 105.142 154.463 105.137 154.438 105.137H149.768C149.742 105.137 149.717 105.142 149.694 105.152C149.67 105.162 149.649 105.176 149.63 105.194C149.612 105.212 149.598 105.233 149.588 105.257C149.578 105.281 149.573 105.306 149.573 105.331V106.312H146.655V105.331C146.655 105.306 146.65 105.281 146.64 105.257C146.63 105.233 146.616 105.212 146.598 105.194C146.58 105.176 146.559 105.162 146.535 105.152C146.511 105.142 146.486 105.137 146.46 105.137H141.791C141.765 105.137 141.74 105.142 141.717 105.152C141.693 105.162 141.671 105.176 141.653 105.194C141.635 105.212 141.621 105.233 141.611 105.257C141.601 105.281 141.596 105.306 141.596 105.331V106.312H138.678V105.331C138.678 105.306 138.673 105.281 138.663 105.257C138.653 105.233 138.639 105.212 138.621 105.194C138.603 105.176 138.582 105.162 138.558 105.152C138.534 105.142 138.509 105.137 138.483 105.137H133.814C133.788 105.137 133.763 105.142 133.739 105.152C133.716 105.162 133.694 105.176 133.676 105.194C133.658 105.212 133.644 105.233 133.634 105.257C133.624 105.281 133.619 105.306 133.619 105.331V106.312H130.701V105.331C130.701 105.306 130.696 105.281 130.686 105.257C130.676 105.233 130.662 105.212 130.644 105.194C130.626 105.176 130.604 105.162 130.581 105.152C130.557 105.142 130.532 105.137 130.506 105.137H93.9287C93.9032 105.137 93.8779 105.142 93.8543 105.152C93.8307 105.162 93.8092 105.176 93.7912 105.194C93.7731 105.212 93.7588 105.233 93.749 105.257C93.7392 105.281 93.7342 105.306 93.7342 105.331V106.312H90.8158V105.331C90.8158 105.306 90.8107 105.281 90.8009 105.257C90.7912 105.233 90.7768 105.212 90.7588 105.194C90.7407 105.176 90.7193 105.162 90.6956 105.152C90.672 105.142 90.6467 105.137 90.6212 105.137H85.9517C85.9261 105.137 85.9009 105.142 85.8772 105.152C85.8536 105.162 85.8322 105.176 85.8141 105.194C85.7961 105.212 85.7817 105.233 85.7719 105.257C85.7622 105.281 85.7571 105.306 85.7571 105.331V106.312H82.8387V105.331C82.8387 105.306 82.8337 105.281 82.8239 105.257C82.8141 105.233 82.7998 105.212 82.7817 105.194C82.7637 105.176 82.7422 105.162 82.7186 105.152C82.695 105.142 82.6697 105.137 82.6441 105.137H77.9747C77.9491 105.137 77.9238 105.142 77.9002 105.152C77.8766 105.162 77.8552 105.176 77.8371 105.194C77.819 105.212 77.8047 105.233 77.7949 105.257C77.7851 105.281 77.7801 105.306 77.7801 105.331V106.312H74.8617V105.331C74.8617 105.306 74.8566 105.281 74.8469 105.257C74.8371 105.233 74.8227 105.212 74.8047 105.194C74.7866 105.176 74.7652 105.162 74.7416 105.152C74.718 105.142 74.6927 105.137 74.6671 105.137H69.9976C69.9721 105.137 69.9468 105.142 69.9232 105.152C69.8996 105.162 69.8781 105.176 69.86 105.194C69.842 105.212 69.8276 105.233 69.8179 105.257C69.8081 105.281 69.8031 105.306 69.8031 105.331V106.312H66.8846V105.331C66.8846 105.306 66.8796 105.281 66.8698 105.257C66.86 105.233 66.8457 105.212 66.8276 105.194C66.8096 105.176 66.7881 105.162 66.7645 105.152C66.7409 105.142 66.7156 105.137 66.6901 105.137H62.0206C61.995 105.137 61.9697 105.142 61.9461 105.152C61.9225 105.162 61.9011 105.176 61.883 105.194C61.8649 105.212 61.8506 105.233 61.8408 105.257C61.831 105.281 61.826 105.306 61.826 105.331V106.312H58.9076V105.331C58.9076 105.306 58.9026 105.281 58.8928 105.257C58.883 105.233 58.8687 105.212 58.8506 105.194C58.8325 105.176 58.8111 105.162 58.7875 105.152C58.7639 105.142 58.7386 105.137 58.713 105.137H54.0435C54.018 105.137 53.9927 105.142 53.9691 105.152C53.9455 105.162 53.924 105.176 53.906 105.194C53.8879 105.212 53.8736 105.233 53.8638 105.257C53.854 105.281 53.849 105.306 53.849 105.331V106.312H50.9305V105.331C50.9305 105.306 50.9255 105.281 50.9157 105.257C50.906 105.233 50.8916 105.212 50.8736 105.194C50.8555 105.176 50.834 105.162 50.8104 105.152C50.7868 105.142 50.7615 105.137 50.736 105.137H46.0665C46.0409 105.137 46.0156 105.142 45.992 105.152C45.9684 105.162 45.947 105.176 45.9289 105.194C45.9108 105.212 45.8965 105.233 45.8867 105.257C45.877 105.281 45.8719 105.306 45.8719 105.331V106.312H36.9221C35.6837 106.312 34.496 106.804 33.6203 107.679C32.7446 108.554 32.2526 109.74 32.2526 110.978V113.088C32.2526 114.325 32.7446 115.512 33.6203 116.387C34.496 117.262 35.6837 117.754 36.9221 117.754H192.183C193.421 117.754 194.609 117.262 195.484 116.387C196.36 115.512 196.852 114.325 196.852 113.088V110.978C196.852 109.74 196.36 108.554 195.484 107.679C194.609 106.804 193.421 106.312 192.183 106.312Z" fill="#3F3D56"/>
<path d="M141.513 38.0077H85.0154V97.353H141.513V38.0077Z" fill="#00A68E"/>
<path d="M114.897 35.5441C114.897 35.5441 110.08 33.8248 106.983 40.7018C103.886 47.5789 99.0682 55.1436 99.0682 55.1436L101.821 55.8313C101.821 55.8313 102.509 51.0174 104.23 50.3297L103.542 56.519C103.542 56.519 124.188 63.7399 133.479 55.8313L133.135 53.4244C133.135 53.4244 134.511 53.7682 134.511 55.8313L135.543 54.7998C135.543 54.7998 134.511 52.7367 131.414 49.9858C129.382 48.1803 128.683 44.7454 128.443 42.5978C128.263 40.8045 127.545 39.1074 126.383 37.729C124.325 35.3456 120.575 32.8123 114.897 35.5441Z" fill="#2F2E41"/>
<path d="M88.2768 42.0322L86.2749 21.1391C86.2749 21.1391 82.2711 9.80345 88.2768 10.6925C94.2824 11.5816 90.7235 20.25 90.7235 20.25L94.06 42.0322H88.2768Z" fill="#9F616A"/>
<path d="M117.415 57.591C121.838 57.591 125.423 54.0086 125.423 49.5894C125.423 45.1702 121.838 41.5878 117.415 41.5878C112.993 41.5878 109.408 45.1702 109.408 49.5894C109.408 54.0086 112.993 57.591 117.415 57.591Z" fill="#9F616A"/>
<path d="M111.632 53.1456C111.632 53.1456 111.187 62.2586 108.963 62.9254C106.739 63.5922 100.51 70.927 103.402 73.1497C106.294 75.3724 122.976 73.8165 122.976 73.8165L121.419 62.2586C121.419 62.2586 117.86 59.8136 120.752 55.5906L111.632 53.1456Z" fill="#9F616A"/>
<path d="M128.329 97.7976H96.8777C96.9911 95.7861 97.2758 92.9455 97.6406 89.8227C97.7518 88.8758 97.8697 87.9 97.9921 86.9154C99.0708 78.2359 100.51 68.7051 100.51 68.7051L100.888 67.8315L104.736 58.9253L104.776 58.9409L109.852 60.9257L110.032 61.7792L111.409 68.2605L120.317 61.0746L128.536 59.7899L129.092 59.7032L130.093 69.1496C130.093 69.1496 130.049 71.2611 130.002 74.2684C129.949 77.7247 129.891 82.3656 129.895 86.342C129.898 88.2423 129.913 89.9916 129.951 91.3874C129.982 92.5632 130.029 93.4901 130.093 94.0435C130.242 95.3038 129.451 96.6129 128.329 97.7976Z" fill="#3F3D56"/>
<path d="M104.959 60.0359L104.737 58.7023L98.5086 51.1452L94.9496 38.476L86.2748 41.81L92.5029 57.1464L101.4 68.482L104.959 60.0359Z" fill="#3F3D56"/>
<path d="M106.896 50.5462C106.896 50.5462 109.648 46.7638 112.057 46.0761C114.466 45.3884 114.81 41.9499 114.81 41.9499C114.81 41.9499 121.004 48.827 124.789 49.1708C128.574 49.5147 125.133 40.9184 125.133 40.9184L118.251 39.1991L111.713 39.8868L106.551 43.3253L106.896 50.5462Z" fill="#2F2E41"/>
<path d="M129.057 90.2404L107.776 91.0839C107.776 91.0839 96.0498 93.7662 97.6184 87.9055C99.1871 82.0448 107.4 86.5662 107.4 86.5662L129.436 85.7373L129.057 90.2404Z" fill="#9F616A"/>
<path d="M126.646 61.2584L128.648 59.7025C128.648 59.7025 131.985 57.9244 132.652 64.1479C133.319 70.3714 138.213 91.0422 133.319 91.2645C128.426 91.4868 115.969 91.709 115.969 91.709L117.304 84.8187L127.536 84.1519L126.646 61.2584Z" fill="#3F3D56"/>
<path opacity="0.15" d="M127.313 70.8159L126.646 83.4851L116.859 85.4855L125.756 81.9293L127.313 70.8159Z" fill="black"/>
<path d="M118.089 0H63.8157V14.2251H118.089V0Z" fill="#00A68E"/>
<path d="M236 117.555H0V118H236V117.555Z" fill="#3F3D56"/>
<path d="M213.08 102.027C216.278 105.456 216.443 110.495 216.443 110.495C216.443 110.495 211.424 109.976 208.226 106.547C205.029 103.118 204.863 98.0786 204.863 98.0786C204.863 98.0786 209.882 98.5982 213.08 102.027Z" fill="#00A68E"/>
<path d="M223.147 107.379C219.715 110.574 214.672 110.739 214.672 110.739C214.672 110.739 215.192 105.724 218.623 102.529C222.055 99.3334 227.098 99.1682 227.098 99.1682C227.098 99.1682 226.578 104.184 223.147 107.379Z" fill="#00A68E"/>
<path d="M222.294 117.555H209.673C209.431 117.555 209.194 117.487 208.989 117.359C208.783 117.231 208.618 117.047 208.512 116.83L205.765 111.186C205.669 110.989 205.625 110.771 205.636 110.553C205.648 110.335 205.715 110.123 205.831 109.937C205.947 109.752 206.108 109.599 206.3 109.493C206.491 109.387 206.707 109.332 206.925 109.332H225.042C225.26 109.332 225.476 109.387 225.667 109.493C225.859 109.599 226.02 109.752 226.136 109.937C226.252 110.123 226.319 110.335 226.331 110.553C226.342 110.771 226.298 110.989 226.202 111.186L223.455 116.83C223.349 117.047 223.184 117.231 222.978 117.359C222.773 117.487 222.536 117.555 222.294 117.555Z" fill="#3F3D56"/>
<path d="M13.5588 102.027C16.7565 105.456 16.9217 110.495 16.9217 110.495C16.9217 110.495 11.9026 109.976 8.70489 106.547C5.50723 103.118 5.34195 98.0786 5.34195 98.0786C5.34195 98.0786 10.3611 98.5982 13.5588 102.027Z" fill="#00A68E"/>
<path d="M20.7707 117.555H8.15014C7.90803 117.555 7.67079 117.487 7.46554 117.359C7.26028 117.231 7.09527 117.047 6.98935 116.83L4.24156 111.186C4.14582 110.989 4.10168 110.771 4.1133 110.553C4.12492 110.335 4.19191 110.123 4.30797 109.937C4.42404 109.752 4.58537 109.599 4.7768 109.493C4.96824 109.387 5.18349 109.332 5.40234 109.332H23.5185C23.7374 109.332 23.9526 109.387 24.144 109.493C24.3355 109.599 24.4968 109.752 24.6129 109.937C24.7289 110.123 24.7959 110.335 24.8075 110.553C24.8192 110.771 24.775 110.989 24.6793 111.186L21.9315 116.83C21.8256 117.047 21.6606 117.231 21.4553 117.359C21.2501 117.487 21.0128 117.555 20.7707 117.555Z" fill="#3F3D56"/>
<path d="M111.194 5.71741H70.7111V8.5077H111.194V5.71741Z" fill="white"/>
</svg>
