<svg width="179" height="115" viewBox="0 0 179 115" fill="none" xmlns="http://www.w3.org/2000/svg">
<path d="M179 0.102051H0.0768127V114.693H179V0.102051Z" fill="#006D5D"/>
<path d="M173.884 14.474H5.19269V107.913H173.884V14.474Z" fill="white"/>
<path d="M178.924 0H0V7.60133H178.924V0Z" fill="#3D305B"/>
<path d="M5.64868 5.29511C6.42677 5.29511 7.05753 4.66435 7.05753 3.88626C7.05753 3.10818 6.42677 2.47742 5.64868 2.47742C4.8706 2.47742 4.23984 3.10818 4.23984 3.88626C4.23984 4.66435 4.8706 5.29511 5.64868 5.29511Z" fill="white"/>
<path d="M10.9963 5.29511C11.7744 5.29511 12.4052 4.66435 12.4052 3.88626C12.4052 3.10818 11.7744 2.47742 10.9963 2.47742C10.2182 2.47742 9.58746 3.10818 9.58746 3.88626C9.58746 4.66435 10.2182 5.29511 10.9963 5.29511Z" fill="white"/>
<path d="M16.3439 5.29511C17.122 5.29511 17.7528 4.66435 17.7528 3.88626C17.7528 3.10818 17.122 2.47742 16.3439 2.47742C15.5659 2.47742 14.9351 3.10818 14.9351 3.88626C14.9351 4.66435 15.5659 5.29511 16.3439 5.29511Z" fill="white"/>
<path d="M58.9417 22.1592H25.9482V57.9541H58.9417V22.1592Z" fill="#F5E6E4"/>
<path d="M106.035 22.1592H73.0411V57.9541H106.035V22.1592Z" fill="#F5E6E4"/>
<path d="M153.127 22.1592H120.134V57.9541H153.127V22.1592Z" fill="#F5E6E4"/>
<path d="M58.9417 64.4333H25.9482V100.228H58.9417V64.4333Z" fill="#F5E6E4"/>
<path d="M106.035 64.4333H73.0411V100.228H106.035V64.4333Z" fill="#F5E6E4"/>
<path d="M153.127 64.4333H120.134V100.228H153.127V64.4333Z" fill="#F5E6E4"/>
<path d="M81.0156 73.6328L87.0439 71.2495L87.7448 83.1659C87.7448 83.1659 89.0065 86.8109 88.586 88.2128C88.586 88.2128 88.8664 90.5961 88.1654 90.7362C87.4644 90.8764 85.5017 91.1568 85.3616 91.0166C85.2214 90.8764 85.2214 90.4559 85.2214 90.4559C85.2214 90.4559 83.8194 91.4372 83.6792 92.5587C83.6792 92.5587 77.7912 94.3812 77.651 92.6989C77.5108 91.0166 80.595 89.6147 80.595 89.6147L82.9783 85.9697L81.0156 73.6328Z" fill="white"/>
<path d="M93.7731 73.6328L99.8013 71.2495L100.502 83.1659C100.502 83.1659 101.764 86.8109 101.343 88.2128C101.343 88.2128 101.624 90.5961 100.923 90.7362C100.222 90.8764 98.2592 91.1568 98.119 91.0166C97.9788 90.8764 97.9788 90.4559 97.9788 90.4559C97.9788 90.4559 96.5769 91.4372 96.4367 92.5587C96.4367 92.5587 90.5486 94.3812 90.4084 92.6989C90.2683 91.0166 93.3525 89.6147 93.3525 89.6147L95.7358 85.9697L93.7731 73.6328Z" fill="white"/>
<path d="M146.243 33.8258H127.928V50.9515H146.243V33.8258Z" fill="#3D305B"/>
<path d="M139.009 33.3679H135.163V51.501H139.009V33.3679Z" fill="#3F3D56"/>
<path d="M136.534 29.9378C137.762 30.9919 137.386 33.4449 137.386 33.4449C137.386 33.4449 135.019 34.1888 133.791 33.1347C132.563 32.0806 132.939 29.6277 132.939 29.6277C132.939 29.6277 135.306 28.8838 136.534 29.9378Z" fill="#3F3D56"/>
<path d="M140.611 32.903C139.561 34.1345 137.107 33.7661 137.107 33.7661C137.107 33.7661 136.356 31.4009 137.406 30.1694C138.456 28.9379 140.91 29.3064 140.91 29.3064C140.91 29.3064 141.662 31.6715 140.611 32.903Z" fill="#3F3D56"/>
<path d="M94.3628 27.6159C94.3628 27.6159 93.0791 31.2025 94.5664 32.8199L93.3266 37.0805C93.3266 37.0805 97.7319 50.2965 96.4732 52.1425C96.4732 52.1425 91.7742 54.492 82.3762 51.3034L86.1942 36.4931L85.6487 30.2418L86.4039 27.3049L88.0822 27.1371C88.0822 27.1371 87.0752 30.9131 88.9213 31.5004C90.7673 32.0878 92.5682 27.2313 92.5682 27.2313L94.3628 27.6159Z" fill="#3F3D56"/>
<path d="M35.0844 50.7697L36.7042 51.4324L44.4352 41.2716L46.865 53.1995L48.4848 52.905C49.5239 42.6216 50.3712 32.1326 49.3315 27.1718L43.3308 26.9141L40.6066 35.6022L39.2812 41.4925L35.0844 50.7697Z" fill="white"/>
<path d="M43.9481 68.4265H40.8972C40.8441 68.4265 40.7915 68.437 40.7424 68.4572C40.6933 68.4775 40.6487 68.5072 40.6112 68.5447C40.5736 68.5822 40.5438 68.6266 40.5235 68.6756C40.5031 68.7245 40.4927 68.777 40.4927 68.83V70.1658C40.4927 70.2728 40.5353 70.3754 40.6112 70.4511C40.687 70.5268 40.7899 70.5693 40.8972 70.5693H41.4027V72.5707H43.4425V70.5693H43.9481C44.0553 70.5693 44.1582 70.5268 44.2341 70.4511C44.3099 70.3754 44.3525 70.2728 44.3525 70.1658V68.83C44.3525 68.777 44.3421 68.7245 44.3218 68.6756C44.3014 68.6266 44.2716 68.5822 44.2341 68.5447C44.1965 68.5072 44.1519 68.4775 44.1029 68.4572C44.0538 68.437 44.0012 68.4265 43.9481 68.4265Z" fill="#3F3D56"/>
<path d="M47.0039 80.6518C45.1354 77.9245 44.1802 74.6774 44.2751 71.3755C44.2768 71.2993 44.2521 71.2249 44.205 71.1648C44.1579 71.1048 44.0915 71.0629 44.0169 71.0462V70.469H40.7948V71.0382H40.7504C40.707 71.0382 40.664 71.0468 40.6239 71.0634C40.5838 71.0801 40.5474 71.1044 40.5167 71.1351C40.4861 71.1657 40.4618 71.2021 40.4452 71.2421C40.4286 71.2822 40.4201 71.3251 40.4202 71.3684C40.4202 71.3764 40.4205 71.3844 40.4211 71.3924C40.675 74.9221 39.8178 78.0875 37.8496 80.8885C37.7363 81.0495 37.6785 81.2428 37.6847 81.4393L38.037 92.3106C38.0455 92.553 38.1475 92.7829 38.3218 92.9521C38.4961 93.1214 38.7292 93.2169 38.9724 93.2189H46.2604C46.5064 93.2169 46.7419 93.1191 46.9167 92.9465C47.0915 92.7738 47.1919 92.5399 47.1963 92.2945L47.3321 81.7394C47.3361 81.352 47.2216 80.9726 47.0039 80.6518Z" fill="#3F3D56"/>
<path d="M45.8502 84.2629H39.5065C39.4126 84.2629 39.3198 84.2832 39.2345 84.3223C39.1492 84.3614 39.0733 84.4185 39.0122 84.4896C38.9511 84.5607 38.9061 84.6441 38.8803 84.7342C38.8545 84.8243 38.8485 84.9188 38.8628 85.0114L39.8214 91.2268H45.3259L46.4903 85.0323C46.5079 84.9385 46.5046 84.842 46.4806 84.7496C46.4566 84.6572 46.4124 84.5712 46.3513 84.4977C46.2902 84.4243 46.2136 84.3651 46.127 84.3246C46.0404 84.284 45.9459 84.2629 45.8502 84.2629Z" fill="white"/>
<path d="M145.892 76.6003C145.305 75.8959 144.296 75.5151 143.327 75.3093C143.356 75.2212 140.38 74.6065 140.33 74.7332L139.209 73.8398L135.764 75.6291L133.827 74.311L132.928 74.6302C132.964 74.4716 130.136 74.9614 130.136 74.9614C129.595 74.9808 128.905 75.0146 128.132 75.0741C125.427 75.2822 125.219 82.2889 125.219 82.2889C126.464 81.7796 127.791 81.5018 129.136 81.4688L129.867 89.8505C133.628 89.5279 137.573 89.9033 141.66 90.8217L143.577 84.2334L148.043 82.497C148.043 82.497 147.279 78.2652 145.892 76.6003Z" fill="#3F3D56"/>
</svg>
