<svg width="76" height="152" viewBox="0 0 76 152" fill="none" xmlns="http://www.w3.org/2000/svg">
<path d="M75.9105 36.1209H75.074V13.2418C75.074 11.5029 74.731 9.78095 74.0645 8.17437C73.398 6.5678 72.421 5.10804 71.1895 3.87842C69.9579 2.6488 68.4959 1.67342 66.8868 1.00796C65.2777 0.3425 63.553 -5.21113e-06 61.8114 0H13.2627C11.521 -3.83976e-06 9.79641 0.342504 8.18731 1.00796C6.57821 1.67343 5.11615 2.64881 3.8846 3.87842C2.65305 5.10804 1.67613 6.56781 1.00962 8.17438C0.343106 9.78095 5.91122e-05 11.5029 6.10352e-05 13.2418V138.758C5.96616e-05 140.497 0.343106 142.219 1.00962 143.826C1.67613 145.432 2.65305 146.892 3.8846 148.122C5.11615 149.351 6.57821 150.327 8.18731 150.992C9.79641 151.658 11.521 152 13.2627 152H61.8114C63.553 152 65.2777 151.658 66.8868 150.992C68.4959 150.327 69.9579 149.351 71.1895 148.122C72.421 146.892 73.398 145.432 74.0645 143.826C74.731 142.219 75.074 140.497 75.074 138.758V52.4066H75.9105V36.1209Z" fill="#3F3D56"/>
<path d="M62.3465 3.44507H56.0092C56.3007 4.15844 56.4119 4.93243 56.3332 5.69884C56.2544 6.46525 55.9881 7.20057 55.5577 7.84002C55.1273 8.47946 54.546 9.00342 53.865 9.36571C53.184 9.72801 52.4242 9.91754 51.6525 9.9176H23.8396C23.068 9.91754 22.3082 9.72801 21.6272 9.36571C20.9462 9.00342 20.3649 8.47947 19.9345 7.84002C19.504 7.20057 19.2377 6.46525 19.159 5.69884C19.0803 4.93243 19.1915 4.15844 19.4829 3.44507H13.564C12.2633 3.44507 10.9754 3.70085 9.77373 4.1978C8.57207 4.69476 7.48022 5.42317 6.56051 6.34143C5.6408 7.25969 4.91125 8.34982 4.41351 9.54959C3.91576 10.7494 3.65958 12.0353 3.65958 13.3339V138.666C3.65958 139.965 3.91576 141.251 4.4135 142.45C4.91125 143.65 5.6408 144.74 6.56051 145.659C7.48021 146.577 8.57207 147.305 9.77373 147.802C10.9754 148.299 12.2633 148.555 13.564 148.555H62.3465C63.6471 148.555 64.935 148.299 66.1367 147.802C67.3384 147.305 68.4302 146.577 69.3499 145.659C70.2696 144.74 70.9992 143.65 71.4969 142.45C71.9947 141.251 72.2508 139.965 72.2508 138.666V13.3339C72.2508 10.7112 71.2073 8.19593 69.3499 6.34142C67.4925 4.48691 64.9733 3.44506 62.3465 3.44507Z" fill="white"/>
<path d="M63.6848 23.0229H12.2256V67.0913H63.6848V23.0229Z" fill="#E6E6E6"/>
<path d="M27.496 76.2809C29.5756 76.2809 31.2613 74.5977 31.2613 72.5215C31.2613 70.4452 29.5756 68.7621 27.496 68.7621C25.4165 68.7621 23.7307 70.4452 23.7307 72.5215C23.7307 74.5977 25.4165 76.2809 27.496 76.2809Z" fill="#00A68E"/>
<path d="M29.3788 72.2083H27.8099V70.6418H27.1824V72.2083H25.6135V72.8348H27.1824V74.4012H27.8099V72.8348H29.3788V72.2083Z" fill="white"/>
<path d="M47.3685 76.2809C49.448 76.2809 51.1338 74.5977 51.1338 72.5215C51.1338 70.4452 49.448 68.7621 47.3685 68.7621C45.289 68.7621 43.6032 70.4452 43.6032 72.5215C43.6032 74.5977 45.289 76.2809 47.3685 76.2809Z" fill="#00A68E"/>
<path d="M49.2511 72.8348V72.2083H45.4858V72.8348H49.2511Z" fill="white"/>
<path d="M39.8745 28.5188H35.8079C35.6649 28.5188 35.5278 28.5755 35.4267 28.6765C35.3256 28.7774 35.2688 28.9143 35.2688 29.0571V30.8392C35.2688 30.982 35.3256 31.1189 35.4267 31.2199C35.5278 31.3208 35.6649 31.3775 35.8079 31.3775H36.4818V34.0478H39.2006V31.3775H39.8745C40.0175 31.3775 40.1546 31.3208 40.2557 31.2199C40.3568 31.1189 40.4136 30.982 40.4136 30.8392V29.0571C40.4136 28.9143 40.3568 28.7774 40.2557 28.6765C40.1546 28.5755 40.0175 28.5188 39.8745 28.5188Z" fill="#00A68E"/>
<path d="M43.9475 44.8289C41.4571 41.1903 40.1839 36.8581 40.3104 32.4529C40.3126 32.3513 40.2796 32.252 40.2169 32.1719C40.1541 32.0918 40.0656 32.0359 39.9662 32.0136V31.2435H35.6714V32.0029H35.6122C35.5543 32.003 35.497 32.0144 35.4436 32.0366C35.3901 32.0588 35.3416 32.0912 35.3007 32.1322C35.2599 32.1731 35.2275 32.2216 35.2054 32.275C35.1833 32.3284 35.172 32.3857 35.1721 32.4435C35.1721 32.4541 35.1725 32.4648 35.1733 32.4755C35.5116 37.1846 34.3691 41.4077 31.7457 45.1447C31.5947 45.3595 31.5176 45.6173 31.5259 45.8795L31.9955 60.3834C32.0068 60.7069 32.1427 61.0136 32.3751 61.2393C32.6074 61.4651 32.918 61.5926 33.2422 61.5952H42.9565C43.2844 61.5925 43.5983 61.4621 43.8313 61.2318C44.0644 61.0015 44.1981 60.6894 44.2041 60.362L44.385 46.28C44.3904 45.7631 44.2378 45.2569 43.9475 44.8289Z" fill="#3F3D56"/>
<path opacity="0.2" d="M39.0267 29.0995C39.0267 29.4075 38.9042 29.7029 38.686 29.9207C38.4679 30.1385 38.172 30.2608 37.8635 30.2608C37.555 30.2608 37.2592 30.1385 37.041 29.9207C36.8229 29.7029 36.7003 29.4075 36.7003 29.0995" fill="black"/>
<path d="M42.4098 49.6466H41.2334C41.1211 48.919 40.7517 48.2556 40.1921 47.7763C39.6324 47.297 38.9194 47.0336 38.182 47.0336C37.4447 47.0336 36.7317 47.297 36.172 47.7763C35.6123 48.2556 35.2429 48.919 35.1306 49.6466H33.9542C33.8291 49.6466 33.7054 49.6737 33.5917 49.7259C33.4779 49.778 33.3769 49.8542 33.2954 49.949C33.2139 50.0439 33.1539 50.1552 33.1195 50.2753C33.0851 50.3955 33.0772 50.5217 33.0962 50.6452L34.374 58.9375H41.711L43.263 50.6731C43.2865 50.5479 43.2821 50.4191 43.2501 50.2958C43.2181 50.1726 43.1592 50.0579 43.0778 49.9599C42.9963 49.8619 42.8942 49.783 42.7788 49.7288C42.6633 49.6747 42.5373 49.6466 42.4098 49.6466V49.6466Z" fill="#00A68E"/>
<path d="M63.6848 85.0527H12.2256V129.121H63.6848V85.0527Z" fill="#E6E6E6"/>
<path d="M27.496 138.311C29.5756 138.311 31.2613 136.628 31.2613 134.551C31.2613 132.475 29.5756 130.792 27.496 130.792C25.4165 130.792 23.7307 132.475 23.7307 134.551C23.7307 136.628 25.4165 138.311 27.496 138.311Z" fill="#00A68E"/>
<path d="M29.3788 134.238H27.8099V132.672H27.1824V134.238H25.6135V134.865H27.1824V136.431H27.8099V134.865H29.3788V134.238Z" fill="white"/>
<path d="M47.3685 138.311C49.448 138.311 51.1338 136.628 51.1338 134.551C51.1338 132.475 49.448 130.792 47.3685 130.792C45.289 130.792 43.6032 132.475 43.6032 134.551C43.6032 136.628 45.289 138.311 47.3685 138.311Z" fill="#00A68E"/>
<path d="M49.2511 134.865V134.238H45.4858V134.865H49.2511Z" fill="white"/>
<path d="M48.0856 116.36L48.114 116.36C49.0828 116.368 50.0317 116.084 50.8367 115.546C51.6417 115.007 52.2654 114.239 52.6267 113.342C53.7649 110.468 54.0315 107.324 53.393 104.3C52.7546 101.276 51.2394 98.5065 49.0361 96.3362C46.8329 94.1659 44.0388 92.6906 41.002 92.094C37.9651 91.4975 34.8196 91.806 31.9571 92.9812C29.0945 94.1564 26.6415 96.1463 24.9033 98.7032C23.1651 101.26 22.2187 104.271 22.1818 107.361C22.1449 110.451 23.0192 113.484 24.6958 116.081C26.3724 118.679 28.7773 120.726 31.6109 121.969C32.4916 122.359 33.4696 122.473 34.4167 122.298C35.3637 122.123 36.2355 121.666 36.9179 120.987C38.3814 119.518 40.1217 118.353 42.0384 117.559C43.9552 116.764 46.0104 116.357 48.0856 116.36Z" fill="white"/>
<path d="M39.9813 111.591C42.8586 111.591 45.1912 109.262 45.1912 106.39C45.1912 103.517 42.8586 101.188 39.9813 101.188C37.1039 101.188 34.7713 103.517 34.7713 106.39C34.7713 109.262 37.1039 111.591 39.9813 111.591Z" fill="#F9A825"/>
</svg>
