<svg width="188" height="124" viewBox="0 0 188 124" fill="none" xmlns="http://www.w3.org/2000/svg">
<path d="M184.909 124H2.47375C1.98186 123.999 1.51028 123.804 1.16246 123.456C0.814645 123.108 0.619006 122.637 0.618469 122.145V9.89528C0.619007 9.40337 0.814645 8.93176 1.16246 8.58393C1.51028 8.2361 1.98186 8.04045 2.47375 8.03992H184.909C185.401 8.04045 185.873 8.2361 186.221 8.58393C186.568 8.93176 186.764 9.40337 186.765 9.89528V122.145C186.764 122.637 186.568 123.108 186.221 123.456C185.873 123.804 185.401 123.999 184.909 124ZM2.47375 8.65837C2.14583 8.65875 1.83145 8.78918 1.59957 9.02107C1.3677 9.25295 1.23727 9.56735 1.23689 9.89528V122.145C1.23724 122.473 1.36767 122.787 1.59955 123.019C1.83143 123.251 2.14582 123.381 2.47375 123.382H184.909C185.237 123.381 185.552 123.251 185.784 123.019C186.015 122.787 186.146 122.473 186.146 122.145V9.89528C186.146 9.56734 186.015 9.25293 185.784 9.02104C185.552 8.78915 185.237 8.65872 184.909 8.65837H2.47375Z" fill="#3F3D56"/>
<path d="M185.821 1.90462e-05H1.56152C1.14943 -0.00201994 0.753413 0.159727 0.460573 0.449681C0.167733 0.739635 0.00206149 1.13405 0 1.54615V12.0599H187.383V1.54615C187.381 1.13405 187.215 0.739635 186.922 0.449681C186.63 0.159727 186.234 -0.00201994 185.821 1.90462e-05Z" fill="#00A68E"/>
<path d="M164.869 7.78959C165.927 7.78959 166.784 6.93254 166.784 5.87532C166.784 4.8181 165.927 3.96106 164.869 3.96106C163.812 3.96106 162.955 4.8181 162.955 5.87532C162.955 6.93254 163.812 7.78959 164.869 7.78959Z" fill="#D0CDE1"/>
<path d="M170.995 7.78959C172.052 7.78959 172.909 6.93254 172.909 5.87532C172.909 4.8181 172.052 3.96106 170.995 3.96106C169.938 3.96106 169.081 4.8181 169.081 5.87532C169.081 6.93254 169.938 7.78959 170.995 7.78959Z" fill="#D0CDE1"/>
<path d="M177.12 7.78959C178.177 7.78959 179.034 6.93254 179.034 5.87532C179.034 4.8181 178.177 3.96106 177.12 3.96106C176.063 3.96106 175.206 4.8181 175.206 5.87532C175.206 6.93254 176.063 7.78959 177.12 7.78959Z" fill="#D0CDE1"/>
<path d="M98.6389 92.1497H12.6778V29.0674H98.6389V92.1497ZM13.2962 91.5312H98.0205V29.6858H13.2962V91.5312Z" fill="#3F3D56"/>
<path d="M138.527 44.2195H118.738V47.621H138.527V44.2195Z" fill="#3F3D56"/>
<path d="M154.916 76.379H135.126V79.7805H154.916V76.379Z" fill="#3F3D56"/>
<path d="M174.396 54.1147H118.738V57.5162H174.396V54.1147Z" fill="#3F3D56"/>
<path d="M174.396 59.6808H118.738V63.0823H174.396V59.6808Z" fill="#3F3D56"/>
<path d="M174.396 65.2468H118.738V68.6483H174.396V65.2468Z" fill="#3F3D56"/>
<path d="M172.991 111.483C174.61 110.071 177.222 108.738 179.327 107.958C177.222 107.177 174.61 105.844 172.991 104.432L174.132 107.587H168.212V108.329H174.132L172.991 111.483Z" fill="#3F3D56"/>
<path d="M74.7456 47.2535H37.8079V81.7919H74.7456V47.2535Z" fill="#00A68E"/>
<path d="M60.1552 46.3301H52.3983V82.9001H60.1552V46.3301Z" fill="#3F3D56"/>
<path d="M55.1648 39.4125C57.6417 41.5384 56.8831 46.4853 56.8831 46.4853C56.8831 46.4853 52.1087 47.9856 49.6318 45.8597C47.1549 43.7339 47.9135 38.7869 47.9135 38.7869C47.9135 38.7869 52.6879 37.2867 55.1648 39.4125Z" fill="#3F3D56"/>
<path d="M63.3873 45.3926C61.2693 47.8762 56.3202 47.1331 56.3202 47.1331C56.3202 47.1331 54.8051 42.3632 56.9231 39.8796C59.0411 37.3959 63.9902 38.1391 63.9902 38.1391C63.9902 38.1391 65.5053 42.909 63.3873 45.3926Z" fill="#3F3D56"/>
</svg>
