<svg width="185" height="128" viewBox="0 0 185 128" fill="none" xmlns="http://www.w3.org/2000/svg">
<path d="M182.414 3.36735e-09H2.58332C1.89836 0.000622882 1.24163 0.273003 0.757297 0.757351C0.272964 1.2417 0.00060167 1.89843 0 2.58339V124.441C0.00060167 125.126 0.272964 125.783 0.757297 126.267C1.24163 126.752 1.89836 127.024 2.58332 127.025H182.414C182.787 127.025 183.156 126.944 183.495 126.787C183.835 126.631 184.136 126.402 184.378 126.118C184.398 126.096 184.417 126.072 184.434 126.047C184.588 125.859 184.713 125.648 184.805 125.422C184.935 125.111 185.001 124.778 185 124.441V2.58341C184.999 1.89797 184.726 1.24085 184.241 0.756447C183.757 0.27204 183.099 -3.49497e-05 182.414 3.36735e-09ZM184.262 124.441C184.263 124.802 184.156 125.154 183.957 125.455C183.78 125.719 183.54 125.935 183.258 126.083C182.997 126.218 182.707 126.288 182.414 126.287H2.58332C2.09399 126.286 1.62487 126.092 1.27886 125.746C0.932851 125.4 0.738203 124.931 0.73761 124.441V2.58341C0.738199 2.09408 0.932846 1.62496 1.27885 1.27895C1.62486 0.932938 2.09399 0.738289 2.58332 0.737696H182.414C182.903 0.737633 183.373 0.931974 183.72 1.27804C184.067 1.62411 184.262 2.0936 184.262 2.58341V124.441Z" fill="#3F3D56"/>
<path d="M184.63 10.3541H0.368134V11.0926H184.63V10.3541Z" fill="#3F3D56"/>
<path d="M6.64559 7.7545C7.86922 7.7545 8.86116 6.76256 8.86116 5.53893C8.86116 4.31531 7.86922 3.32336 6.64559 3.32336C5.42197 3.32336 4.43002 4.31531 4.43002 5.53893C4.43002 6.76256 5.42197 7.7545 6.64559 7.7545Z" fill="#3F3D56"/>
<path d="M13.0153 7.7545C14.239 7.7545 15.2309 6.76256 15.2309 5.53893C15.2309 4.31531 14.239 3.32336 13.0153 3.32336C11.7917 3.32336 10.7998 4.31531 10.7998 5.53893C10.7998 6.76256 11.7917 7.7545 13.0153 7.7545Z" fill="#3F3D56"/>
<path d="M19.3851 7.7545C20.6087 7.7545 21.6007 6.76256 21.6007 5.53893C21.6007 4.31531 20.6087 3.32336 19.3851 3.32336C18.1615 3.32336 17.1695 4.31531 17.1695 5.53893C17.1695 6.76256 18.1615 7.7545 19.3851 7.7545Z" fill="#3F3D56"/>
<path d="M138.745 27.4491H46.3113C45.2898 27.4491 44.3102 27.0434 43.5879 26.3211C42.8657 25.5988 42.4599 24.6192 42.4599 23.5977C42.4599 22.5763 42.8657 21.5967 43.5879 20.8744C44.3102 20.1521 45.2898 19.7463 46.3113 19.7463H138.745C139.766 19.7463 140.746 20.1521 141.468 20.8744C142.19 21.5967 142.596 22.5763 142.596 23.5977C142.596 24.6192 142.19 25.5988 141.468 26.3211C140.746 27.0434 139.766 27.4491 138.745 27.4491ZM46.3113 20.3389C45.447 20.3389 44.6181 20.6822 44.0069 21.2934C43.3958 21.9045 43.0524 22.7334 43.0524 23.5977C43.0524 24.462 43.3958 25.2909 44.0069 25.9021C44.6181 26.5133 45.447 26.8566 46.3113 26.8566H138.745C139.609 26.8566 140.438 26.5133 141.049 25.9021C141.66 25.2909 142.004 24.462 142.004 23.5977C142.004 22.7334 141.66 21.9045 141.049 21.2934C140.438 20.6822 139.609 20.3389 138.745 20.3389H46.3113Z" fill="#3F3D56"/>
<path d="M47.0835 51.0019H38.7881C38.1596 51.0019 37.5567 50.7522 37.1122 50.3077C36.6678 49.8632 36.4181 49.2604 36.4181 48.6318C36.4181 48.0032 36.6678 47.4004 37.1122 46.9559C37.5567 46.5114 38.1596 46.2617 38.7881 46.2617H47.0835C47.712 46.2617 48.3149 46.5114 48.7594 46.9559C49.2038 47.4004 49.4535 48.0032 49.4535 48.6318C49.4535 49.2604 49.2038 49.8632 48.7594 50.3077C48.3149 50.7522 47.712 51.0019 47.0835 51.0019Z" fill="#CCCCCC"/>
<path d="M56.8601 59.0009H38.7881C38.1596 59.0009 37.5567 58.7512 37.1122 58.3067C36.6678 57.8623 36.4181 57.2594 36.4181 56.6308C36.4181 56.0022 36.6678 55.3994 37.1122 54.9549C37.5567 54.5105 38.1596 54.2607 38.7881 54.2607H56.8601C57.4886 54.2607 58.0915 54.5105 58.536 54.9549C58.9804 55.3994 59.2301 56.0022 59.2301 56.6308C59.2301 57.2594 58.9804 57.8623 58.536 58.3067C58.0915 58.7512 57.4886 59.0009 56.8601 59.0009Z" fill="#CCCCCC"/>
<path d="M48.5648 85.9606H40.2695C39.6409 85.9606 39.038 85.7109 38.5936 85.2665C38.1491 84.822 37.8994 84.2191 37.8994 83.5905C37.8994 82.962 38.1491 82.3591 38.5936 81.9146C39.038 81.4702 39.6409 81.2205 40.2695 81.2205H48.5648C49.1934 81.2205 49.7962 81.4702 50.2407 81.9146C50.6852 82.3591 50.9349 82.962 50.9349 83.5905C50.9349 84.2191 50.6852 84.822 50.2407 85.2665C49.7962 85.7109 49.1934 85.9606 48.5648 85.9606Z" fill="#CCCCCC"/>
<path d="M58.3414 93.9597H40.2695C39.6409 93.9597 39.038 93.71 38.5936 93.2655C38.1491 92.821 37.8994 92.2182 37.8994 91.5896C37.8994 90.961 38.1491 90.3581 38.5936 89.9137C39.038 89.4692 39.6409 89.2195 40.2695 89.2195H58.3414C58.97 89.2195 59.5728 89.4692 60.0173 89.9137C60.4618 90.3581 60.7115 90.961 60.7115 91.5896C60.7115 92.2182 60.4618 92.821 60.0173 93.2655C59.5728 93.71 58.97 93.9597 58.3414 93.9597Z" fill="#CCCCCC"/>
<path d="M103.077 85.072H94.7815C94.1529 85.072 93.55 84.8223 93.1056 84.3778C92.6611 83.9333 92.4114 83.3305 92.4114 82.7019C92.4114 82.0733 92.6611 81.4705 93.1056 81.026C93.55 80.5815 94.1529 80.3318 94.7815 80.3318H103.077C103.705 80.3318 104.308 80.5815 104.753 81.026C105.197 81.4705 105.447 82.0733 105.447 82.7019C105.447 83.3305 105.197 83.9333 104.753 84.3778C104.308 84.8223 103.705 85.072 103.077 85.072Z" fill="#CCCCCC"/>
<path d="M112.853 93.071H94.7815C94.1529 93.071 93.55 92.8213 93.1056 92.3768C92.6611 91.9323 92.4114 91.3295 92.4114 90.7009C92.4114 90.0723 92.6611 89.4695 93.1056 89.025C93.55 88.5805 94.1529 88.3308 94.7815 88.3308H112.853C113.482 88.3308 114.085 88.5805 114.529 89.025C114.974 89.4695 115.223 90.0723 115.223 90.7009C115.223 91.3295 114.974 91.9323 114.529 92.3768C114.085 92.8213 113.482 93.071 112.853 93.071Z" fill="#CCCCCC"/>
<path d="M102.188 52.4832H93.8927C93.2641 52.4832 92.6612 52.2335 92.2168 51.789C91.7723 51.3446 91.5226 50.7417 91.5226 50.1131C91.5226 49.4845 91.7723 48.8817 92.2168 48.4372C92.6612 47.9928 93.2641 47.743 93.8927 47.743H102.188C102.817 47.743 103.419 47.9928 103.864 48.4372C104.308 48.8817 104.558 49.4845 104.558 50.1131C104.558 50.7417 104.308 51.3446 103.864 51.789C103.419 52.2335 102.817 52.4832 102.188 52.4832Z" fill="#CCCCCC"/>
<path d="M111.965 60.4822H93.8927C93.2641 60.4822 92.6612 60.2325 92.2168 59.7881C91.7723 59.3436 91.5226 58.7407 91.5226 58.1122C91.5226 57.4836 91.7723 56.8807 92.2168 56.4363C92.6612 55.9918 93.2641 55.7421 93.8927 55.7421H111.965C112.593 55.7421 113.196 55.9918 113.64 56.4363C114.085 56.8807 114.335 57.4836 114.335 58.1122C114.335 58.7407 114.085 59.3436 113.64 59.7881C113.196 60.2325 112.593 60.4822 111.965 60.4822Z" fill="#CCCCCC"/>
<path d="M157.589 50.7055H149.293C148.665 50.7055 148.062 50.4558 147.618 50.0113C147.173 49.5668 146.923 48.964 146.923 48.3354C146.923 47.7068 147.173 47.104 147.618 46.6595C148.062 46.215 148.665 45.9653 149.293 45.9653H157.589C158.217 45.9653 158.82 46.215 159.265 46.6595C159.709 47.104 159.959 47.7068 159.959 48.3354C159.959 48.964 159.709 49.5668 159.265 50.0113C158.82 50.4558 158.217 50.7055 157.589 50.7055Z" fill="#CCCCCC"/>
<path d="M167.365 58.7047H149.293C148.665 58.7047 148.062 58.4549 147.618 58.0105C147.173 57.566 146.923 56.9632 146.923 56.3346C146.923 55.706 147.173 55.1031 147.618 54.6587C148.062 54.2142 148.665 53.9645 149.293 53.9645H167.365C167.994 53.9645 168.597 54.2142 169.041 54.6587C169.486 55.1031 169.735 55.706 169.735 56.3346C169.735 56.9632 169.486 57.566 169.041 58.0105C168.597 58.4549 167.994 58.7047 167.365 58.7047Z" fill="#CCCCCC"/>
<path d="M24.1524 61.5192C29.061 61.5192 33.0402 57.54 33.0402 52.6314C33.0402 47.7227 29.061 43.7435 24.1524 43.7435C19.2437 43.7435 15.2645 47.7227 15.2645 52.6314C15.2645 57.54 19.2437 61.5192 24.1524 61.5192Z" fill="#3D305B"/>
<path d="M28.3001 56.6308H20.0047C19.7691 56.6305 19.5432 56.5368 19.3766 56.3702C19.2099 56.2035 19.1162 55.9776 19.116 55.742V49.5205C19.1162 49.2849 19.2099 49.0589 19.3766 48.8923C19.5432 48.7257 19.7691 48.632 20.0047 48.6317H22.34C22.4919 48.6312 22.6413 48.6698 22.7739 48.7438C22.9065 48.8179 23.0178 48.9249 23.097 49.0546L23.7482 50.113H28.3001C28.5357 50.1133 28.7616 50.207 28.9282 50.3736C29.0949 50.5402 29.1886 50.7662 29.1888 51.0018V55.742C29.1886 55.9776 29.0949 56.2035 28.9282 56.3702C28.7616 56.5368 28.5357 56.6305 28.3001 56.6308ZM20.0047 49.2242C19.9262 49.2243 19.8509 49.2556 19.7954 49.3111C19.7398 49.3667 19.7086 49.442 19.7085 49.5205V55.742C19.7086 55.8205 19.7398 55.8958 19.7954 55.9514C19.8509 56.0069 19.9262 56.0381 20.0047 56.0382H28.3001C28.3786 56.0381 28.4539 56.0069 28.5094 55.9514C28.565 55.8958 28.5962 55.8205 28.5963 55.742V51.0018C28.5962 50.9233 28.565 50.848 28.5094 50.7924C28.4539 50.7369 28.3786 50.7056 28.3001 50.7055H23.4172L22.5924 49.3651C22.566 49.3219 22.5289 49.2863 22.4847 49.2616C22.4405 49.2369 22.3906 49.224 22.34 49.2242H20.0047Z" fill="white"/>
<path d="M78.6643 63.0005C83.5729 63.0005 87.5521 59.0213 87.5521 54.1127C87.5521 49.2041 83.5729 45.2249 78.6643 45.2249C73.7557 45.2249 69.7765 49.2041 69.7765 54.1127C69.7765 59.0213 73.7557 63.0005 78.6643 63.0005Z" fill="#3D305B"/>
<path d="M82.5158 59.7417H74.813C74.5774 59.7414 74.3515 59.6477 74.1848 59.4811C74.0182 59.3144 73.9245 59.0885 73.9242 58.8529V49.3725C73.9245 49.1369 74.0182 48.911 74.1848 48.7444C74.3515 48.5777 74.5774 48.484 74.813 48.4838H80.3944C80.5968 48.4839 80.7932 48.5531 80.9512 48.6798L83.0724 50.3844C83.1763 50.4675 83.2602 50.5729 83.3177 50.6929C83.3752 50.8128 83.4049 50.9442 83.4046 51.0772V58.8529C83.4043 59.0885 83.3106 59.3144 83.144 59.4811C82.9773 59.6477 82.7514 59.7414 82.5158 59.7417ZM74.813 49.0763C74.7345 49.0764 74.6592 49.1076 74.6036 49.1632C74.5481 49.2187 74.5168 49.294 74.5167 49.3725V58.8529C74.5168 58.9314 74.5481 59.0067 74.6036 59.0623C74.6592 59.1178 74.7345 59.1491 74.813 59.1492H82.5158C82.5943 59.1491 82.6696 59.1178 82.7252 59.0623C82.7807 59.0067 82.8119 58.9314 82.812 58.8529V51.0772C82.8122 51.0329 82.8023 50.9891 82.7831 50.9491C82.7639 50.9091 82.736 50.874 82.7014 50.8463L80.5798 49.1415C80.5272 49.0993 80.4618 49.0763 80.3944 49.0763H74.813Z" fill="white"/>
<path d="M81.0345 52.6313H76.2943C76.2157 52.6313 76.1404 52.6001 76.0848 52.5446C76.0293 52.489 75.998 52.4137 75.998 52.3351C75.998 52.2565 76.0293 52.1811 76.0848 52.1256C76.1404 52.07 76.2157 52.0388 76.2943 52.0388H81.0345C81.1131 52.0388 81.1884 52.07 81.244 52.1256C81.2995 52.1811 81.3307 52.2565 81.3307 52.3351C81.3307 52.4137 81.2995 52.489 81.244 52.5446C81.1884 52.6001 81.1131 52.6313 81.0345 52.6313Z" fill="white"/>
<path d="M81.0345 54.4089H76.2943C76.2157 54.4089 76.1404 54.3777 76.0848 54.3222C76.0293 54.2666 75.998 54.1912 75.998 54.1127C75.998 54.0341 76.0293 53.9587 76.0848 53.9032C76.1404 53.8476 76.2157 53.8164 76.2943 53.8164H81.0345C81.1131 53.8164 81.1884 53.8476 81.244 53.9032C81.2995 53.9587 81.3307 54.0341 81.3307 54.1127C81.3307 54.1912 81.2995 54.2666 81.244 54.3222C81.1884 54.3777 81.1131 54.4089 81.0345 54.4089Z" fill="white"/>
<path d="M81.0345 56.1864H76.2943C76.2157 56.1864 76.1404 56.1552 76.0848 56.0996C76.0293 56.0441 75.998 55.9687 75.998 55.8901C75.998 55.8116 76.0293 55.7362 76.0848 55.6806C76.1404 55.6251 76.2157 55.5939 76.2943 55.5939H81.0345C81.1131 55.5939 81.1884 55.6251 81.244 55.6806C81.2995 55.7362 81.3307 55.8116 81.3307 55.8901C81.3307 55.9687 81.2995 56.0441 81.244 56.0996C81.1884 56.1552 81.1131 56.1864 81.0345 56.1864Z" fill="white"/>
<path d="M133.473 61.2228C138.381 61.2228 142.36 57.2436 142.36 52.335C142.36 47.4264 138.381 43.4471 133.473 43.4471C128.564 43.4471 124.585 47.4264 124.585 52.335C124.585 57.2436 128.564 61.2228 133.473 61.2228Z" fill="#3D305B"/>
<path d="M137.62 55.5939H129.325C129.089 55.5937 128.863 55.4999 128.697 55.3333C128.53 55.1667 128.436 54.9408 128.436 54.7051V49.965C128.436 49.7293 128.53 49.5034 128.697 49.3368C128.863 49.1702 129.089 49.0764 129.325 49.0762H137.62C137.856 49.0764 138.082 49.1702 138.248 49.3368C138.415 49.5034 138.509 49.7293 138.509 49.965V54.7051C138.509 54.9408 138.415 55.1667 138.248 55.3333C138.082 55.4999 137.856 55.5937 137.62 55.5939ZM129.325 49.6687C129.246 49.6688 129.171 49.7 129.115 49.7556C129.06 49.8111 129.029 49.8864 129.029 49.965V54.7051C129.029 54.7837 129.06 54.859 129.115 54.9145C129.171 54.9701 129.246 55.0013 129.325 55.0014H137.62C137.699 55.0013 137.774 54.9701 137.83 54.9145C137.885 54.859 137.916 54.7837 137.916 54.7051V49.965C137.916 49.8864 137.885 49.8111 137.83 49.7556C137.774 49.7 137.699 49.6688 137.62 49.6687H129.325Z" fill="white"/>
<path d="M133.472 53.1168C133.306 53.117 133.143 53.0706 133.001 52.9827L128.575 50.2164C128.509 50.1746 128.461 50.1082 128.444 50.0317C128.426 49.9552 128.44 49.8749 128.481 49.8083C128.523 49.7418 128.589 49.6944 128.666 49.6767C128.742 49.659 128.823 49.6723 128.889 49.7138L133.316 52.4801C133.363 52.5094 133.417 52.5248 133.473 52.5248C133.528 52.5248 133.582 52.5094 133.63 52.4801L138.056 49.7138C138.122 49.6723 138.203 49.659 138.279 49.6767C138.355 49.6944 138.422 49.7418 138.463 49.8083C138.505 49.8749 138.519 49.9552 138.501 50.0317C138.483 50.1082 138.436 50.1746 138.37 50.2164L133.944 52.9827C133.802 53.0706 133.639 53.1171 133.472 53.1168Z" fill="white"/>
<path d="M24.1524 96.4778C29.061 96.4778 33.0402 92.4986 33.0402 87.59C33.0402 82.6814 29.061 78.7021 24.1524 78.7021C19.2437 78.7021 15.2645 82.6814 15.2645 87.59C15.2645 92.4986 19.2437 96.4778 24.1524 96.4778Z" fill="#3D305B"/>
<path d="M28.3001 90.849H20.0047C19.7691 90.8488 19.5432 90.7551 19.3766 90.5884C19.2099 90.4218 19.1162 90.1959 19.116 89.9603V85.2201C19.1162 84.9844 19.2099 84.7585 19.3766 84.5919C19.5432 84.4253 19.7691 84.3316 20.0047 84.3313H28.3001C28.5357 84.3316 28.7616 84.4253 28.9282 84.5919C29.0949 84.7585 29.1886 84.9844 29.1888 85.2201V89.9603C29.1886 90.1959 29.0949 90.4218 28.9282 90.5884C28.7616 90.7551 28.5357 90.8488 28.3001 90.849ZM20.0047 84.9238C19.9262 84.9239 19.8509 84.9551 19.7953 85.0107C19.7398 85.0662 19.7086 85.1415 19.7085 85.2201V89.9603C19.7086 90.0388 19.7398 90.1141 19.7953 90.1696C19.8509 90.2252 19.9262 90.2564 20.0047 90.2565H28.3001C28.3786 90.2564 28.4539 90.2252 28.5095 90.1696C28.565 90.1141 28.5962 90.0388 28.5963 89.9603V85.2201C28.5962 85.1415 28.565 85.0662 28.5095 85.0107C28.4539 84.9551 28.3786 84.9239 28.3001 84.9238H20.0047Z" fill="white"/>
<path d="M26.9853 90.849H21.0233C20.9193 90.849 20.8171 90.8217 20.727 90.7697C20.6369 90.7177 20.5621 90.6429 20.5101 90.5528C20.4581 90.4627 20.4307 90.3605 20.4307 90.2565C20.4307 90.1525 20.4582 90.0503 20.5102 89.9602L22.306 86.8495C22.358 86.7594 22.4328 86.6846 22.5229 86.6326C22.613 86.5806 22.7152 86.5532 22.8192 86.5532C22.9232 86.5532 23.0254 86.5806 23.1154 86.6326C23.2055 86.6846 23.2803 86.7594 23.3324 86.8495L24.4922 88.8585L25.1641 87.6946C25.2162 87.6045 25.291 87.5297 25.3811 87.4777C25.4711 87.4257 25.5733 87.3983 25.6773 87.3983C25.7813 87.3983 25.8835 87.4257 25.9736 87.4777C26.0637 87.5297 26.1385 87.6045 26.1905 87.6946L27.4985 89.9602C27.5505 90.0503 27.5779 90.1525 27.5779 90.2565C27.5779 90.3605 27.5505 90.4627 27.4985 90.5528C27.4464 90.6429 27.3716 90.7177 27.2815 90.7697C27.1914 90.8217 27.0893 90.849 26.9852 90.849H26.9853ZM26.9853 90.2565L25.6773 87.9908L24.7488 89.5992C24.7228 89.6442 24.6854 89.6816 24.6404 89.7076C24.5953 89.7336 24.5442 89.7473 24.4922 89.7473C24.4402 89.7473 24.3891 89.7336 24.3441 89.7076C24.299 89.6816 24.2616 89.6442 24.2356 89.5992L22.8192 87.1457L21.0233 90.2565H26.9853Z" fill="white"/>
<path d="M27.4112 86.7014C27.7385 86.7014 28.0038 86.4361 28.0038 86.1089C28.0038 85.7816 27.7385 85.5164 27.4112 85.5164C27.084 85.5164 26.8187 85.7816 26.8187 86.1089C26.8187 86.4361 27.084 86.7014 27.4112 86.7014Z" fill="white"/>
<path d="M79.2569 95.5891C84.1655 95.5891 88.1447 91.6099 88.1447 86.7013C88.1447 81.7927 84.1655 77.8135 79.2569 77.8135C74.3483 77.8135 70.3691 81.7927 70.3691 86.7013C70.3691 91.6099 74.3483 95.5891 79.2569 95.5891Z" fill="#3D305B"/>
<path d="M79.2569 86.8495C78.7296 86.8495 78.2141 86.6932 77.7756 86.4002C77.3371 86.1072 76.9953 85.6908 76.7935 85.2036C76.5917 84.7163 76.5389 84.1802 76.6418 83.663C76.7447 83.1458 76.9986 82.6707 77.3715 82.2978C77.7444 81.9249 78.2195 81.671 78.7367 81.5681C79.254 81.4652 79.7901 81.518 80.2773 81.7198C80.7645 81.9216 81.1809 82.2634 81.4739 82.7019C81.7669 83.1403 81.9233 83.6558 81.9233 84.1832C81.9225 84.8901 81.6413 85.5678 81.1414 86.0677C80.6416 86.5676 79.9638 86.8487 79.2569 86.8495ZM79.2569 82.1094C78.8468 82.1094 78.4458 82.231 78.1048 82.4589C77.7637 82.6867 77.4979 83.0106 77.341 83.3896C77.184 83.7685 77.1429 84.1855 77.2229 84.5878C77.303 84.9901 77.5005 85.3596 77.7905 85.6496C78.0805 85.9396 78.45 86.1372 78.8523 86.2172C79.2546 86.2972 79.6716 86.2561 80.0505 86.0992C80.4295 85.9422 80.7534 85.6764 80.9813 85.3353C81.2091 84.9943 81.3307 84.5934 81.3307 84.1832C81.3301 83.6334 81.1114 83.1063 80.7226 82.7175C80.3339 82.3287 79.8067 82.11 79.2569 82.1094Z" fill="white"/>
<path d="M81.627 91.8858H76.8868C76.6119 91.8855 76.3484 91.7761 76.154 91.5817C75.9596 91.3873 75.8502 91.1238 75.8499 90.8489C75.8499 89.9453 76.2089 89.0787 76.8478 88.4398C77.4867 87.8008 78.3533 87.4419 79.2569 87.4419C80.1605 87.4419 81.0271 87.8008 81.666 88.4398C82.305 89.0787 82.6639 89.9453 82.6639 90.8489C82.6636 91.1238 82.5542 91.3873 82.3598 91.5817C82.1655 91.7761 81.9019 91.8855 81.627 91.8858ZM79.2569 88.0344C78.5107 88.0353 77.7953 88.3321 77.2677 88.8597C76.7401 89.3873 76.4433 90.1027 76.4424 90.8489C76.4426 90.9667 76.4894 91.0797 76.5727 91.163C76.656 91.2463 76.769 91.2932 76.8868 91.2933H81.627C81.7448 91.2932 81.8578 91.2463 81.9411 91.163C82.0244 91.0797 82.0713 90.9667 82.0714 90.8489C82.0705 90.1027 81.7737 89.3873 81.2461 88.8597C80.7185 88.3321 80.0031 88.0353 79.2569 88.0344Z" fill="white"/>
</svg>
